<svg xmlns="http://www.w3.org/2000/svg" viewBox="0 0 24 24">
  <!--
    Save Outline icon by Google;
    Url:            https://materialdesignicons.com/icon/content-save-outline;
    License:        Available under Apache License Version 2.0 (https://raw.githubusercontent.com/google/material-design-icons/master/LICENSE);
    Modifications:  Modifications have been made to remove unused attributes in SVG code and add a <title> element;
  -->
  <title>Save</title>
  <path d="M17 3H5C3.89 3 3 3.9 3 5V19C3 20.1 3.89 21 5 21H19C20.1 21 21 20.1 21 19V7L17 3M19 19H5V5H16.17L19 7.83V19M12 12C10.34 12 9 13.34 9 15S10.34 18 12 18 15 16.66 15 15 13.66 12 12 12M6 6H15V10H6V6Z" />
</svg>
