<svg version="1" xmlns="http://www.w3.org/2000/svg" width="1365.333" height="1365.333" viewBox="0 0 1024.000000 1024.000000"><path d="M568.7 7.7c-.1.1-5.8.4-12.7.8-12.7.6-20.3 1.1-27.5 2-2.2.2-6.5.7-9.5 1-8.7.9-12.9 1.5-22 3-4.7.7-10.3 1.6-12.4 2-11.3 1.6-41.2 8.7-62.1 14.5-25.5 7.2-63 21.9-90.2 35.4-20.5 10.1-56.1 30.5-60.7 34.7-1.3 1.2 74 76.3 75.6 75.3.6-.4 5.7-4.2 11.2-8.4 30.2-23.1 65-43.4 99.7-58.3 17-7.3 42.5-16.8 48.9-18.2.8-.2 5.6-1.5 10.5-2.9 13.4-3.9 26.3-7.2 31.5-8.1 1.4-.3 8.1-1.6 15-2.9 6.9-1.4 14.9-2.8 17.9-3.1 3-.4 6.1-.8 7-1 9.8-1.9 41.3-4.2 58.9-4.4l8.2-.1V40.5c0-26.4-.1-28.5-1.7-28.6-1 0-2.5-.2-3.5-.4-.9-.2-5.6-.6-10.5-1-4.8-.4-10.1-.8-11.8-1.1-7.1-.9-59.2-2.4-59.8-1.7zM698.5 45.2v25.3l4.5.6c2.5.4 7.2 1 10.5 1.3 3.3.4 8.7 1.1 12 1.6 3.3.5 7.8 1.2 10 1.5 4.7.6 6.6.9 20 3.6 12.6 2.5 31.4 7.2 42.5 10.5 13.3 4.1 30.4 9.6 31.5 10.3.6.3 1.2.6 1.5.6 1 .1 17.6 6.7 22 8.7 2.5 1.1 7.9 3.5 12 5.3 37.6 16.2 88.3 48.1 120.9 76 11.2 9.6 17.4 15 20.9 18.4 9.4 9 15.5 14.4 14.1 12.6C979 167.2 928.5 122.1 870.5 87c-41.8-25.3-89.3-45.8-135.8-58.6-11-3.1-33.4-8.4-35-8.4-.9 0-1.2 6.3-1.2 25.2zM225.1 134.5c-5.2 4.2-12.4 10.1-16 13.3-3.5 3.1-9 7.9-12 10.6-16 13.9-54.7 55.3-66.1 70.6-1.4 1.8-5 6.5-8 10.4-23.7 30.2-51.7 77.1-68.2 114.1-2.2 4.9-4.8 10.6-5.6 12.5-.9 1.9-1.6 3.7-1.7 4-.1.3-.6 1.6-1.2 3-4.1 9.5-18.4 49.4-19.1 53 0 .3-.3 1.2-.6 2-5.5 17.2-14.9 57.7-18 77.9-.3 1.4-.7 4.5-1.1 6.9l-.7 4.2 83.3-.2c77.2-.3 83.2-.4 83.5-2 .1-.9.5-6.9.9-13.3.3-6.4.8-12.4 1-13.3.2-1 .6-4.5 1-7.7.6-5.7 2.8-19.4 4-26 2.7-14.4 4.1-20.9 7.5-33.6 10.9-40.3 27.9-81.6 46.2-111.8 2.1-3.4 3.8-6.5 3.8-6.7 0-1.8 27.9-42.4 33.6-49 1.1-1.2 3.3-3.9 4.9-6 7.7-9.8 15-18.1 27.8-31.2 9.9-10.2 10-10.2 8.1-12.3-4.6-5.2-76.7-76.9-77.3-76.9-.3 0-4.8 3.4-10 7.5zM696.8 306.6c-.2.1-4 .4-8.4.5-25.7.6-60.1 10.4-84.9 24.2-49.2 27.3-80.7 69.7-89.5 120.6-2.6 14.9-2.1 44.9 1 57.1.5 1.9 1.2 4.9 1.5 6.7.8 4.8 6.3 20 9.7 26.8 9.6 19 24.2 36.3 43.6 51.5 5.1 4 20.5 14.2 36.4 24.1 4 2.5 18.4 11.4 32 19.9 13.6 8.4 27.3 17.3 30.5 19.7 16.1 11.9 24 23.9 24.7 37.3.2 4.3-.2 9.3-.9 11.7-.7 2.4-1.1 4.3-.9 4.3.2 0-1 2.2-2.6 4.9-6.2 10-21.1 18.8-34.7 20.7-2.6.3-5.2.8-5.6 1.1-2.1 1.3-26.6.3-35.2-1.3-1.1-.2-3.6-.7-5.5-1-27.6-4.9-59.2-21.9-81.3-43.6-8.7-8.6-13.6-10.5-19.4-7.4-2.9 1.5-4.2 2.8-39.2 36.5-25.4 24.3-23.9 22.8-25.2 27.2-2.1 6.7 2.2 13 23.1 33.9 15.2 15.3 26.8 24.5 46.1 36.5 4.8 3 22.9 11.9 31 15.3 8.4 3.5 31.3 10.5 37.9 11.6 1.4.2 4.1.7 6 1 1.9.3 4.9.8 6.5 1.1 21.2 3.4 58 2 81.9-3.1 3.9-.9 8.2-1.8 9.6-2 10.5-1.9 36.6-11.6 49.6-18.5 8.9-4.7 24.8-15.1 30.9-20.1 5.7-4.7 22.4-21.5 26.5-26.7 5.1-6.4 13-18.6 16.9-26.1 6.8-13 14-34.1 15.6-46 .3-2.5.9-5.9 1.2-7.5 1.2-6.7 1.8-36.3.9-41.1-.2-1.1-.7-4.7-1-8-2.6-24-14-48.3-30.9-65.7-14.2-14.6-26.4-23.1-90.2-62.7-37.4-23.2-47.7-30.7-54.1-39.4-13.4-18-4.9-46.2 16.9-56.4 10-4.7 17.7-6.2 32.2-6.2 23.9 0 49.3 10.3 71.9 29.4 12.3 10.4 15.9 11.8 22 8.7 1.9-1 11.5-10 21.3-20.1 9.8-10 22-22.5 27.1-27.7 14.6-15 16.5-18.4 13.7-25-1.8-4.3-13.9-16.8-26.5-27.5-13.3-11.2-11.5-9.9-21.2-16.1-29-18.7-60.2-29.8-91.1-32.2-10.3-.9-19.6-1.3-19.9-.9zM2.2 560.4c-2.2 3.7-2.1 90.4.3 100.8.2 1.3.7 5.4 1 9.3C4 677.4 5 686.2 7 699c.5 3.6 1.2 8.3 1.5 10.5.3 2.2 1.2 7.4 2.1 11.5.8 4.1 1.6 8.5 1.9 9.8.2 1.3.6 3.1.9 4 .3.9.7 3.4 1 5.5.3 2 2.4 10.8 4.6 19.5C39.4 839.1 72.3 909.5 120.1 976c16.8 23.4 26.8 35.2 32 37.8 5.6 2.8 12.3 3 17 .7 4.9-2.4 139.6-137.1 141.5-141.5 2.1-4.8 2.3-8.7.8-14.1-1.1-3.6-3.4-6.7-11.1-14.6-19.3-19.7-26.1-27.5-38.9-44.3-10.7-14-23.6-33.2-29.6-44-1.4-2.5-3.5-6.3-4.8-8.5-4.6-8.1-19-37.6-19-39 0-.3-.8-2.4-1.9-4.8-3.6-8.2-4.4-10.3-8.6-22.7-4.1-12-9.8-30.7-10.9-36-.3-1.4-1.7-7.5-3-13.5-1.4-6.1-2.8-12.6-3.1-14.5-.3-1.9-1-6-1.5-9s-1.2-7.5-1.5-10c-.5-4.5-1.3-10.3-2-15-.2-1.4-.7-7-1-12.5-.4-5.5-.9-10.2-1.2-10.5-.9-.9-170.5-.5-171.1.4z"/></svg>