<svg viewBox="0 0 2944 2943" xmlns="http://www.w3.org/2000/svg" fill-rule="evenodd" clip-rule="evenodd" stroke-linejoin="round" stroke-miterlimit="2">
  <path fill="none" d="M1 0h2943v2943H1z"/>
  <clipPath id="a">
    <path d="M1 0h2943v2943H1z"/>
  </clipPath>
  <g clip-path="url(#a)" fill-rule="nonzero">
    <path d="M1346 1562l123-119c11-10 28-10 38 1 62 67 152 110 242 110 72 0 123-31 123-86 0-58-44-82-126-134l-89-54c-106-65-171-148-171-285-1-198 184-359 400-360 122 0 241 58 326 156 9 10 9 26-1 36l-119 122a26 26 0 01-37 1c-52-48-108-78-173-78-78 0-116 41-116 92 0 52 45 72 137 130l99 62c110 69 154 134 154 264 0 202-167 370-434 370-128 0-271-56-379-193-8-10-7-26 3-36M770 2132l279-280c17-17 17-44 0-61a905 905 0 01-282-610v-7H401a1326 1326 0 00305 955c16 19 46 21 64 3" fill="#f0882b"/>
    <path d="M1134 361a1060 1060 0 01643-231l15 1V10l-8-1a1214 1214 0 00-812 191l162 161z" fill="#dddb00"/>
    <path d="M1882 134a1087 1087 0 01692 329 1151 1151 0 00-692-438v109z" fill="#93c01f"/>
    <path d="M1029 458l37-37-168-168-34 26a1271 1271 0 00-452 804h354a996 996 0 01263-625" fill="#f8b133"/>
    <g fill="#f0882b">
      <path d="M1 2793l49-47c18 24 49 39 79 39 22 0 37-9 37-26 0-18-13-25-38-41l-27-16c-33-20-52-45-52-87 0-60 56-109 122-109 39 0 78 19 104 53l-47 48c-18-18-37-29-58-29-24 0-36 12-36 28 0 15 14 22 42 39l30 19c33 21 47 41 47 81 0 61-51 112-132 112-41 0-87-19-120-64M443 2690c0-27-10-38-24-38s-32 6-44 29l-18 89c5 13 17 19 27 19 30 0 59-40 59-99m-134-100h68l2 28h1c23-21 51-34 76-34 46 0 73 34 73 96 0 99-67 177-138 177-20 0-39-10-49-28h-2l-6 49-12 65h-84l71-353zM699 2691l2-12c0-18-7-32-29-32-20 0-41 13-52 44h79zm-164 54c0-96 77-161 147-161 64 0 87 45 87 99 0 26-10 55-14 63H614c0 34 24 48 54 48 14 0 34-7 46-15l27 49c-22 18-55 29-91 29-70 0-115-43-115-112M938 2691l2-12c0-18-8-32-29-32-20 0-41 13-53 44h80zm-164 54c0-96 77-161 147-161 64 0 87 45 87 99 0 26-10 55-14 63H852c0 34 24 48 54 48 15 0 35-7 46-15l27 49c-22 18-54 29-90 29-70 0-115-43-115-112M1170 2755l17-84c-6-13-19-19-28-19-31 0-59 40-59 99 0 27 10 38 24 38s32-6 46-34m-156 6c0-99 66-177 138-177 22 0 41 11 50 29h1l6-49 14-76h84l-73 363h-68v-32h-1c-23 24-53 38-78 38-46 0-73-34-73-96M1260 2807l41-40c21 23 41 30 57 30 15 0 29-8 29-18 0-14-17-19-44-34-25-15-50-39-50-74 0-50 47-87 105-87 37 0 66 18 88 42l-42 42c-13-12-30-23-46-23s-27 9-27 19c0 15 22 21 42 33 25 13 52 34 52 73 0 52-47 87-112 87-30 0-71-16-93-50M1479 2749c0-88 66-165 156-165 33 0 58 17 71 32l-46 49c-9-9-18-14-30-14-38 0-66 43-66 97 0 26 13 42 38 42 15 0 26-7 35-14l34 51c-19 15-46 30-88 30-59 0-104-39-104-108"/>
      <path d="M1838 2755l16-84c-6-13-18-19-28-19-30 0-58 40-58 99 0 27 9 38 24 38 13 0 32-6 46-34m-157 6c0-99 67-177 139-177 22 0 45 12 54 32h1l12-26h66l-52 261h-67v-32h-2c-22 24-53 38-78 38-46 0-73-34-73-96M1991 2590h68v33h2c24-20 52-39 85-39 43 0 62 23 62 68 0 11-2 25-4 37l-33 162h-83l30-151c2-10 4-17 4-23 0-15-8-22-22-22s-27 9-46 29l-32 167h-83l52-261zM2261 2590h68v33h2c24-20 52-39 85-39 43 0 62 23 62 68 0 11-2 25-5 37l-32 162h-83l30-151c2-10 4-17 4-23 0-15-8-22-22-22s-27 9-46 29l-32 167h-83l52-261zM2652 2691l2-12c0-18-8-32-29-32-20 0-41 13-53 44h80zm-164 54c0-96 77-161 147-161 64 0 87 45 87 99 0 26-10 55-14 63h-142c0 34 24 48 54 48 15 0 35-7 46-15l27 49c-22 18-54 29-90 29-70 0-115-43-115-112M2769 2590h68l-2 51h2c20-33 49-57 78-57 15 0 23 2 28 5l-27 72c-7-4-18-4-27-4-22 0-40 13-60 48l-28 146h-84l52-261z"/>
    </g>
  </g>
</svg>
